<svg id="eMzAUGdNarn1" xmlns="http://www.w3.org/2000/svg" xmlns:xlink="http://www.w3.org/1999/xlink" viewBox="0 0 1200 1200" shape-rendering="geometricPrecision" text-rendering="geometricPrecision" project-id="05acf02df4ea4b518b4ff7ab4fa83e34" export-id="811c0e3706464c8a90ed1d005fa88a87" cached="false"><defs><linearGradient id="eMzAUGdNarn2-fill" x1="0" y1="1" x2="1" y2="0" spreadMethod="pad" gradientUnits="objectBoundingBox" gradientTransform="translate(0 0)"><stop id="eMzAUGdNarn2-fill-0" offset="0%" stop-color="#174fc1"/><stop id="eMzAUGdNarn2-fill-1" offset="100%" stop-color="#21c6ff"/></linearGradient></defs><rect width="1119.403008" height="1119.403008" rx="200" ry="200" transform="matrix(1.072 0 0 1.072001-.000012-.000572)" fill="url(#eMzAUGdNarn2-fill)"/><polygon points="0,-397.840816 116.922482,-160.929991 545.129937,-237.400076 189.18455,61.469787 233.844965,321.859981 0,198.920408 -233.844965,321.859981 -189.18455,61.469787 -378.369101,-122.939573 -116.922482,-160.929991 0,-397.840816" transform="translate(578.124582 666.039763)" fill="#031333" stroke-width="0"/><polygon points="0,-397.840816 116.922482,-160.929991 545.129937,-237.400076 189.18455,61.469787 233.844965,321.859981 0,198.920408 -233.844965,321.859981 -189.18455,61.469787 -378.369101,-122.939573 -116.922482,-160.929991 0,-397.840816" transform="translate(534.124582 609.941071)" fill="#d2dbed" stroke-width="0"/></svg>
